<?xml version="1.0" standalone="no"?>
<!DOCTYPE svg PUBLIC "-//W3C//DTD SVG 20010904//EN"
 "https://www.w3.org/TR/2001/REC-SVG-20010904/DTD/svg10.dtd">
<svg version="1.0" xmlns="https://www.w3.org/2000/svg"
 width="144.000000pt" height="144.000000pt" viewBox="0 0 144.000000 144.000000"
 preserveAspectRatio="xMidYMid meet">
<metadata>
Created by potrace 1.11, written by Peter Selinger 2001-2013
</metadata>
<g transform="translate(0.000000,144.000000) scale(0.100000,-0.100000)"
fill="#000000" stroke="none">
<path d="M620 1433 c-14 -2 -54 -13 -90 -24 -236 -72 -423 -264 -487 -501 -25
-89 -24 -300 1 -383 33 -108 82 -197 158 -284 78 -90 73 -105 73 218 -1 336 3
371 50 467 35 71 104 146 173 188 219 132 494 69 633 -147 21 -32 41 -71 44
-87 4 -17 10 -30 14 -30 12 0 231 77 237 83 8 8 -59 148 -96 202 -93 135 -254
245 -418 284 -71 17 -223 24 -292 14z"/>
<path d="M652 915 c-43 -19 -98 -78 -113 -122 -19 -59 -7 -147 27 -195 71
-102 226 -120 316 -37 76 71 91 198 33 281 -55 77 -175 111 -263 73z"/>
<path d="M1175 563 c-11 -45 -72 -137 -118 -180 -81 -74 -180 -118 -291 -127
-55 -4 -162 15 -207 38 l-29 14 -1 -56 c-2 -149 1 -216 8 -223 12 -12 130 -29
204 -29 281 0 533 161 653 418 21 46 36 85 33 88 -7 7 -225 84 -237 84 -4 0
-11 -12 -15 -27z"/>
</g>
</svg>
